<svg id="visual" viewBox="0 0 900 600" width="900" height="600" xmlns="http://www.w3.org/2000/svg" xmlns:xlink="http://www.w3.org/1999/xlink" version="1.1"><rect x="0" y="0" width="900" height="600" fill="#f8f9fa"></rect><defs><linearGradient id="grad1_0" x1="33.3%" y1="0%" x2="100%" y2="100%"><stop offset="20%" stop-color="#f8f9fa" stop-opacity="1"></stop><stop offset="80%" stop-color="#f8f9fa" stop-opacity="1"></stop></linearGradient></defs><defs><linearGradient id="grad2_0" x1="0%" y1="0%" x2="66.7%" y2="100%"><stop offset="20%" stop-color="#f8f9fa" stop-opacity="1"></stop><stop offset="80%" stop-color="#f8f9fa" stop-opacity="1"></stop></linearGradient></defs><g transform="translate(900, 0)"><path d="M0 486.7C-67.6 484.3 -135.3 481.9 -186.3 449.7C-237.3 417.5 -271.6 355.5 -304.8 304.8C-337.9 254 -369.9 214.6 -400 165.7C-430.2 116.8 -458.5 58.4 -486.7 0L0 0Z" fill="#9a8def"></path></g><g transform="translate(0, 600)"><path d="M0 -486.7C60.7 -475 121.4 -463.2 183.3 -442.5C245.2 -421.9 308.4 -392.3 344.2 -344.2C379.9 -296 388.2 -229.2 407.4 -168.8C426.6 -108.3 456.7 -54.1 486.7 0L0 0Z" fill="#9a8def"></path></g></svg>