<svg id="visual" viewBox="0 0 900 350" width="900" height="350" xmlns="http://www.w3.org/2000/svg" xmlns:xlink="http://www.w3.org/1999/xlink" version="1.1"><path d="M0 142L21.5 150.2C43 158.3 86 174.7 128.8 174.3C171.7 174 214.3 157 257.2 160.8C300 164.7 343 189.3 385.8 198C428.7 206.7 471.3 199.3 514.2 192.2C557 185 600 178 642.8 187.5C685.7 197 728.3 223 771.2 238.8C814 254.7 857 260.3 878.5 263.2L900 266L900 351L878.5 351C857 351 814 351 771.2 351C728.3 351 685.7 351 642.8 351C600 351 557 351 514.2 351C471.3 351 428.7 351 385.8 351C343 351 300 351 257.2 351C214.3 351 171.7 351 128.8 351C86 351 43 351 21.5 351L0 351Z" fill="#020303" stroke-linecap="round" stroke-linejoin="miter"></path></svg>